<mxfile host="65bd71144e">
    <diagram id="74em1Ly6dXvXPck9f6iY" name="第1頁">
        <mxGraphModel dx="50" dy="440" grid="1" gridSize="10" guides="1" tooltips="1" connect="1" arrows="1" fold="1" page="1" pageScale="1" pageWidth="827" pageHeight="1169" math="0" shadow="0">
            <root>
                <mxCell id="0"/>
                <mxCell id="1" parent="0"/>
                <mxCell id="4ZkD0T5NA3254wUa9wvh-65" value="" style="group" parent="1" vertex="1" connectable="0">
                    <mxGeometry x="30" y="180" width="776.12" height="520" as="geometry"/>
                </mxCell>
                <mxCell id="8" value="&lt;font color=&quot;#ffffff&quot; style=&quot;font-size: 22px;&quot;&gt;Customer&lt;/font&gt;" style="rounded=0;whiteSpace=wrap;html=1;strokeWidth=2;fontFamily=Helvetica;sketch=1;curveFitting=1;jiggle=2;fillColor=none;" parent="4ZkD0T5NA3254wUa9wvh-65" vertex="1">
                    <mxGeometry x="11.087428571428573" width="177.39885714285717" height="77.61194029850746" as="geometry"/>
                </mxCell>
                <mxCell id="18" value="" style="swimlane;whiteSpace=wrap;html=1;sketch=1;strokeColor=#FFFFFF;strokeWidth=2;fontFamily=Helvetica;fontSize=22;fontColor=#FFFFFF;fillColor=none;startSize=50;" parent="4ZkD0T5NA3254wUa9wvh-65" vertex="1">
                    <mxGeometry x="255.01085714285716" width="232.836" height="221.74840085287846" as="geometry"/>
                </mxCell>
                <mxCell id="22" value="" style="edgeStyle=none;html=1;fontFamily=Helvetica;fontSize=22;fontColor=none;" parent="18" source="20" target="21" edge="1">
                    <mxGeometry relative="1" as="geometry"/>
                </mxCell>
                <mxCell id="20" value="&lt;div style=&quot;text-align: center;&quot;&gt;&lt;font color=&quot;#ffffff&quot;&gt;employee ID&lt;/font&gt;&lt;/div&gt;" style="text;whiteSpace=wrap;html=1;fontSize=22;fontFamily=Helvetica;fontColor=none;fillColor=none;" parent="18" vertex="1">
                    <mxGeometry x="47.675942857142864" y="66.52452025586354" width="177.39885714285717" height="55.437100213219615" as="geometry"/>
                </mxCell>
                <mxCell id="21" value="&lt;div style=&quot;&quot;&gt;&lt;span style=&quot;color: rgb(255, 255, 255); font-weight: 700;&quot;&gt;Employee&lt;/span&gt;&lt;br&gt;&lt;/div&gt;" style="text;whiteSpace=wrap;html=1;fontSize=22;fontFamily=Helvetica;fontColor=none;fillColor=none;align=center;verticalAlign=middle;" parent="18" vertex="1">
                    <mxGeometry x="27.71857142857143" width="177.39885714285717" height="55.437100213219615" as="geometry"/>
                </mxCell>
                <mxCell id="24" value="&lt;div style=&quot;text-align: center;&quot;&gt;&lt;font color=&quot;#ffffff&quot;&gt;employee Name&amp;nbsp;&lt;/font&gt;&lt;/div&gt;" style="text;whiteSpace=wrap;html=1;fontSize=22;fontFamily=Helvetica;fontColor=none;fillColor=none;verticalAlign=middle;" parent="18" vertex="1">
                    <mxGeometry x="22.174857142857146" y="110.87420042643923" width="258.33708571428576" height="55.437100213219615" as="geometry"/>
                </mxCell>
                <mxCell id="25" value="&lt;div style=&quot;&quot;&gt;&lt;font color=&quot;#ffffff&quot;&gt;salary&lt;/font&gt;&lt;/div&gt;&lt;div style=&quot;&quot;&gt;&lt;font color=&quot;#ffffff&quot;&gt;&lt;br&gt;&lt;/font&gt;&lt;/div&gt;" style="text;whiteSpace=wrap;html=1;fontSize=22;fontFamily=Helvetica;fontColor=none;fillColor=none;align=center;" parent="18" vertex="1">
                    <mxGeometry x="27.71857142857143" y="158.5501066098081" width="177.39885714285717" height="55.437100213219615" as="geometry"/>
                </mxCell>
                <mxCell id="29" value="" style="swimlane;whiteSpace=wrap;html=1;sketch=1;strokeColor=#FFFFFF;strokeWidth=2;fontFamily=Helvetica;fontSize=22;fontColor=#FFFFFF;fillColor=none;startSize=50;" parent="4ZkD0T5NA3254wUa9wvh-65" vertex="1">
                    <mxGeometry x="543.2840000000001" width="232.836" height="343.7100213219616" as="geometry"/>
                </mxCell>
                <mxCell id="30" value="" style="edgeStyle=none;html=1;fontFamily=Helvetica;fontSize=22;fontColor=none;" parent="29" source="31" target="32" edge="1">
                    <mxGeometry relative="1" as="geometry"/>
                </mxCell>
                <mxCell id="31" value="&lt;div style=&quot;text-align: center;&quot;&gt;&lt;font color=&quot;#ffffff&quot;&gt;student ID&lt;/font&gt;&lt;/div&gt;" style="text;whiteSpace=wrap;html=1;fontSize=22;fontFamily=Helvetica;fontColor=none;fillColor=none;verticalAlign=middle;" parent="29" vertex="1">
                    <mxGeometry x="55.43714285714286" y="58.76332622601279" width="177.39885714285717" height="55.437100213219615" as="geometry"/>
                </mxCell>
                <mxCell id="32" value="&lt;div style=&quot;&quot;&gt;&lt;span style=&quot;color: rgb(255, 255, 255); font-weight: 700;&quot;&gt;Employee&lt;/span&gt;&lt;br&gt;&lt;/div&gt;" style="text;whiteSpace=wrap;html=1;fontSize=22;fontFamily=Helvetica;fontColor=none;fillColor=none;align=center;verticalAlign=middle;" parent="29" vertex="1">
                    <mxGeometry x="27.71857142857143" width="177.39885714285717" height="55.437100213219615" as="geometry"/>
                </mxCell>
                <mxCell id="33" value="&lt;span style=&quot;color: rgb(255, 255, 255); text-align: center;&quot;&gt;student&amp;nbsp;&lt;/span&gt;&lt;span style=&quot;color: rgb(255, 255, 255); text-align: center; background-color: initial;&quot;&gt;Name&amp;nbsp;&lt;/span&gt;&lt;span style=&quot;color: rgb(255, 255, 255); text-align: center;&quot;&gt;&lt;br&gt;&lt;/span&gt;" style="text;whiteSpace=wrap;html=1;fontSize=22;fontFamily=Helvetica;fontColor=none;fillColor=none;verticalAlign=middle;" parent="29" vertex="1">
                    <mxGeometry x="47.675942857142864" y="105.33049040511727" width="587.6337142857143" height="55.437100213219615" as="geometry"/>
                </mxCell>
                <mxCell id="35" value="&lt;span style=&quot;color: rgb(255, 255, 255); text-align: center;&quot;&gt;student Addr&lt;/span&gt;&lt;span style=&quot;color: rgb(255, 255, 255); text-align: center; background-color: initial;&quot;&gt;&amp;nbsp;&lt;/span&gt;&lt;span style=&quot;color: rgb(255, 255, 255); text-align: center;&quot;&gt;&lt;br&gt;&lt;/span&gt;" style="text;whiteSpace=wrap;html=1;fontSize=22;fontFamily=Helvetica;fontColor=none;fillColor=none;verticalAlign=middle;" parent="29" vertex="1">
                    <mxGeometry x="55.43714285714286" y="146.35394456289978" width="587.6337142857143" height="55.437100213219615" as="geometry"/>
                </mxCell>
                <mxCell id="37" value="" style="line;strokeWidth=4;html=1;perimeter=backbonePerimeter;points=[];outlineConnect=0;labelBackgroundColor=#000000;sketch=1;strokeColor=#FFFFFF;fontFamily=Helvetica;fontSize=22;fontColor=none;fillColor=none;" parent="29" vertex="1">
                    <mxGeometry y="210.66098081023455" width="232.836" height="11.087420042643924" as="geometry"/>
                </mxCell>
                <mxCell id="38" value="&lt;div style=&quot;text-align: center;&quot;&gt;&lt;font color=&quot;#ffffff&quot;&gt;student ()&lt;/font&gt;&lt;/div&gt;" style="text;whiteSpace=wrap;html=1;fontSize=22;fontFamily=Helvetica;fontColor=none;fillColor=none;verticalAlign=middle;" parent="29" vertex="1">
                    <mxGeometry x="66.52457142857143" y="221.74840085287846" width="177.39885714285717" height="55.437100213219615" as="geometry"/>
                </mxCell>
                <mxCell id="39" value="&lt;div style=&quot;text-align: center;&quot;&gt;&lt;font color=&quot;#ffffff&quot;&gt;getStudentRec()&lt;/font&gt;&lt;/div&gt;" style="text;whiteSpace=wrap;html=1;fontSize=22;fontFamily=Helvetica;fontColor=none;fillColor=none;verticalAlign=middle;" parent="29" vertex="1">
                    <mxGeometry x="33.26228571428572" y="277.1855010660981" width="277.1857142857143" height="55.437100213219615" as="geometry"/>
                </mxCell>
                <mxCell id="41" value="&lt;font color=&quot;#ffffff&quot;&gt;&lt;span style=&quot;font-size: 22px;&quot;&gt;teacher&lt;/span&gt;&lt;/font&gt;" style="rounded=0;whiteSpace=wrap;html=1;strokeWidth=2;fontFamily=Helvetica;sketch=1;curveFitting=1;jiggle=2;fillColor=none;" parent="4ZkD0T5NA3254wUa9wvh-65" vertex="1">
                    <mxGeometry y="431.3006396588486" width="177.39885714285717" height="77.61194029850746" as="geometry"/>
                </mxCell>
                <mxCell id="42" value="&lt;span style=&quot;color: rgb(255, 255, 255); font-size: 22px;&quot;&gt;student&amp;nbsp;&lt;/span&gt;" style="rounded=0;whiteSpace=wrap;html=1;strokeWidth=2;fontFamily=Helvetica;sketch=1;curveFitting=1;jiggle=2;fillColor=none;" parent="4ZkD0T5NA3254wUa9wvh-65" vertex="1">
                    <mxGeometry x="576.5462857142858" y="431.3006396588486" width="177.39885714285717" height="77.61194029850746" as="geometry"/>
                </mxCell>
                <mxCell id="56" value="" style="line;strokeWidth=2;html=1;perimeter=backbonePerimeter;points=[];outlineConnect=0;labelBackgroundColor=#000000;sketch=1;strokeColor=#FFFFFF;fontFamily=Helvetica;fontSize=22;fontColor=none;fillColor=none;" parent="4ZkD0T5NA3254wUa9wvh-65" vertex="1">
                    <mxGeometry x="177.39885714285717" y="464.56289978678035" width="399.14742857142863" height="11.087420042643924" as="geometry"/>
                </mxCell>
                <mxCell id="60" value="&lt;span style=&quot;color: rgb(255, 255, 255); font-family: Helvetica; font-size: 28px; font-style: normal; font-variant-ligatures: normal; font-variant-caps: normal; font-weight: 400; letter-spacing: normal; orphans: 2; text-indent: 0px; text-transform: none; widows: 2; word-spacing: 0px; -webkit-text-stroke-width: 0px; background-color: rgb(42, 37, 47); text-decoration-thickness: initial; text-decoration-style: initial; text-decoration-color: initial; float: none; display: inline !important;&quot;&gt;teach&lt;/span&gt;" style="text;whiteSpace=wrap;html=1;fontSize=28;fontFamily=Helvetica;fontColor=none;align=center;verticalAlign=middle;" parent="4ZkD0T5NA3254wUa9wvh-65" vertex="1">
                    <mxGeometry x="332.6228571428572" y="409.12579957356076" width="121.9617142857143" height="55.437100213219615" as="geometry"/>
                </mxCell>
                <mxCell id="61" value="&lt;font color=&quot;#ffffff&quot; style=&quot;font-size: 20px;&quot;&gt;1&lt;/font&gt;" style="text;whiteSpace=wrap;html=1;fontSize=20;fontFamily=Helvetica;fontColor=none;align=center;verticalAlign=middle;" parent="4ZkD0T5NA3254wUa9wvh-65" vertex="1">
                    <mxGeometry x="155.22400000000002" y="464.56289978678035" width="121.9617142857143" height="55.437100213219615" as="geometry"/>
                </mxCell>
                <mxCell id="4ZkD0T5NA3254wUa9wvh-61" value="&lt;font color=&quot;#ffffff&quot; style=&quot;font-size: 21px;&quot;&gt;1..*&lt;/font&gt;" style="text;whiteSpace=wrap;html=1;fontSize=17;fontFamily=Helvetica;fontColor=none;align=center;verticalAlign=middle;" parent="4ZkD0T5NA3254wUa9wvh-65" vertex="1">
                    <mxGeometry x="468.9982285714286" y="464.56289978678035" width="121.9617142857143" height="55.437100213219615" as="geometry"/>
                </mxCell>
                <mxCell id="4ZkD0T5NA3254wUa9wvh-62" value="" style="triangle;whiteSpace=wrap;html=1;labelBackgroundColor=#000000;sketch=1;strokeColor=#FFFFFF;strokeWidth=2;fontFamily=Helvetica;fontSize=20;fontColor=none;fillColor=none;rotation=-25;" parent="4ZkD0T5NA3254wUa9wvh-65" vertex="1">
                    <mxGeometry x="487.8468571428572" y="425.75692963752664" width="16.63114285714286" height="22.174840085287848" as="geometry"/>
                </mxCell>
            </root>
        </mxGraphModel>
    </diagram>
</mxfile>